<?xml version="1.0" encoding="UTF-8" standalone="no"?>
<!-- Generator: Adobe Illustrator 16.0.0, SVG Export Plug-In . SVG Version: 6.00 Build 0)  -->

<svg
   version="1.0"
   id="Layer_1"
   x="0px"
   y="0px"
   width="57.296532"
   height="13.15298"
   viewBox="244.5 122.667 57.296532 13.152978"
   enable-background="new 244.5 122.667 140 33"
   xml:space="preserve"
   sodipodi:docname="logo_final_blue.svg"
   inkscape:version="1.3.2 (1:1.3.2+202311252150+091e20ef0f)"
   xmlns:inkscape="http://www.inkscape.org/namespaces/inkscape"
   xmlns:sodipodi="http://sodipodi.sourceforge.net/DTD/sodipodi-0.dtd"
   xmlns="http://www.w3.org/2000/svg"
   xmlns:svg="http://www.w3.org/2000/svg"><path
   d="m 249.33343,135.81998 q -0.72417,-0.16841 -1.39782,-0.53892 -0.65681,-0.3705 -1.17889,-0.8589 -0.52207,-0.48839 -0.87574,-1.06099 -0.35366,-0.57261 -0.47155,-1.12837 0.87574,-0.53891 1.65043,-1.17888 0.79154,-0.63996 1.39782,-1.31361 -0.8589,-0.15157 -1.59991,-0.50524 -0.72417,-0.37051 -1.24625,-0.8589 -0.52208,-0.50524 -0.82522,-1.12836 -0.2863,-0.63997 -0.2863,-1.33046 0,-1.4315 0.94311,-2.30724 0.94311,-0.87574 2.47566,-0.87574 0.52207,0 1.01047,0.15157 0.48839,0.13473 0.90942,0.38735 l 1.58308,-0.60629 4.36187,12.86668 -2.9809,0.18525 -0.8589,-2.94721 z m -4.1261,-9.81842 q 0,1.17888 0.94311,2.10515 0.95995,0.92627 2.66091,1.21257 0.5726,-0.70733 0.89258,-1.41466 0.33683,-0.72418 0.33683,-1.39782 0,-1.26309 -0.70733,-2.02095 -0.70733,-0.75785 -1.81885,-0.75785 -0.90943,0 -1.61676,0.63996 -0.69049,0.62313 -0.69049,1.6336 z m 5.47339,2.39145 q -0.40419,0.7747 -1.02731,1.41466 -0.60628,0.63997 -1.36414,1.07784 l 3.08194,-0.11789 z m -3.23351,3.08194 q 0.47156,0.67365 1.16205,1.19573 0.70733,0.50523 1.86937,1.01047 l 1.29677,-1.51571 -0.20209,-0.69049 z m 22.60744,0.62313 q 0,1.90305 -1.29677,2.79563 -1.27993,0.89259 -3.40192,0.89259 -2.25672,0 -3.58718,-0.74101 -1.31361,-0.74102 -1.31361,-2.02095 0,-0.94311 0.60628,-1.81885 0.60629,-0.87574 1.86938,-1.70096 -0.72418,-0.55576 -1.19573,-1.33045 -0.47155,-0.79154 -0.47155,-1.90306 0,-0.69049 0.26946,-1.33045 0.26945,-0.63997 0.80837,-1.12837 0.53892,-0.50523 1.3473,-0.79153 0.82522,-0.30314 1.90305,-0.30314 0.79154,0 1.51571,0.20209 0.74102,0.2021 1.29677,0.5726 0.57261,0.37051 0.90943,0.89259 0.33682,0.50523 0.33682,1.12836 0,0.48839 -0.18525,0.97679 -0.16841,0.48839 -0.38735,0.95994 -0.21893,0.45472 -0.43787,0.90943 -0.21893,0.43787 -0.30314,0.8589 0.74101,0.55576 1.22941,1.26309 0.48839,0.70733 0.48839,1.61676 z m -7.5617,-6.88806 q 0,0.53892 0.52208,0.99364 0.52208,0.43787 1.29677,0.8589 0.79154,0.40419 1.73465,0.84206 0.9431,0.43787 1.76832,0.95994 0.0337,-1.1452 -0.25262,-2.02094 -0.2863,-0.89258 -0.82521,-1.48202 -0.52208,-0.58945 -1.26309,-0.89259 -0.74102,-0.31998 -1.6336,-0.31998 -0.72417,0 -1.04415,0.30314 -0.30315,0.30314 -0.30315,0.75785 z m -0.55576,6.50071 q 0,0.45471 0.4884,0.9431 0.50524,0.4884 1.24625,0.89259 0.74101,0.40419 1.63359,0.67365 0.89259,0.25261 1.68412,0.25261 0.80838,0 1.21257,-0.25261 0.42103,-0.25262 0.42103,-0.7747 0,-0.53892 -0.37051,-0.94311 -0.3705,-0.40418 -0.95994,-0.74101 -0.5726,-0.33682 -1.31362,-0.63996 -0.74101,-0.30315 -1.48202,-0.67365 -1.43151,0.11789 -2.00411,0.47155 -0.55576,0.35367 -0.55576,0.79154 z m 15.12993,3.85663 0.31998,-3.48613 -2.81248,0.2021 3.01458,-2.57671 -0.55576,-4.41239 -2.30725,-2.59354 q 5.11973,0.16841 7.79748,1.24624 2.69459,1.07784 2.69459,3.30088 0,1.21257 -0.67365,2.12199 -0.6568,0.90943 -1.95358,1.49887 l 3.68823,4.69869 H 283.231 l -2.93037,-3.95768 q -0.13473,0.0337 -0.2863,0.0674 -0.15157,0.0337 -0.30314,0.0505 l 0.11789,3.83979 z m 2.55986,-6.77016 0.0337,0.84206 0.87574,-0.0337 q 1.17888,-0.0505 1.90305,-0.16841 0.74102,-0.13473 1.14521,-0.31999 0.40418,-0.20209 0.53891,-0.45471 0.13473,-0.26946 0.13473,-0.58944 0,-0.4884 -0.35366,-0.89259 -0.35367,-0.42103 -0.95995,-0.72417 -0.58944,-0.31998 -1.41466,-0.55576 -0.80838,-0.23577 -1.73464,-0.3705 z m 22.16955,1.11152 q 0,1.24625 -0.69049,2.62723 -0.67365,1.38097 -2.10515,3.19982 -1.61676,-0.10104 -3.08194,-0.60628 -1.46519,-0.52208 -2.55986,-1.41466 -1.09468,-0.90942 -1.75149,-2.2062 -0.63996,-1.29677 -0.63996,-2.93037 0,-1.11151 0.5726,-2.17251 0.5726,-1.061 1.58307,-1.86937 1.02731,-0.82522 2.44197,-1.31362 1.43151,-0.50523 3.11563,-0.50523 h 0.35366 v 4.2945 h 0.0505 q 0.53892,0 1.02732,0.2021 0.50523,0.18525 0.87574,0.55576 0.37051,0.35366 0.58944,0.90942 0.21894,0.53892 0.21894,1.22941 z m -6.06283,0.33682 -0.21894,-0.16841 q 0.58944,-1.21257 1.24625,-1.93674 0.65681,-0.74101 1.4315,-0.99363 v -1.34729 q -0.48839,-0.10105 -1.06099,-0.15157 -0.55576,-0.0674 -1.01048,-0.0674 -1.98726,0 -3.1493,0.70733 -1.1452,0.69049 -1.1452,2.15567 0,0.90943 0.60628,1.65044 0.62313,0.72417 1.70096,1.27993 1.07784,0.53892 2.57671,0.92627 1.5157,0.37051 3.28403,0.58944 0.16841,-0.40419 0.2863,-0.82522 0.11789,-0.42103 0.11789,-0.8589 0,-0.90942 -0.65681,-1.41466 -0.65681,-0.52208 -1.61675,-0.52208 -0.7747,0 -1.36414,0.26946 -0.58944,0.26946 -1.02731,0.70733 z"
   id="text3"
   style="font-size:16.8412px;line-height:0.99;font-family:Trickster;-inkscape-font-specification:Trickster;text-align:center;letter-spacing:4.2px;word-spacing:0px;text-anchor:middle;fill:#0a20ff;stroke-width:14.0299;paint-order:markers fill stroke"
   aria-label="ASRG" /><defs
   id="defs8"><clipPath
     clipPathUnits="userSpaceOnUse"
     id="clipPath18"><path
       d="M 116.66667,116.66667 H 3391.6669 V 2362.5002 H 116.66667 Z"
       transform="matrix(0.16243653,0,0,0.16243653,-34.95093,-130.95088)"
       clip-rule="evenodd"
       id="path18" /></clipPath><clipPath
     clipPathUnits="userSpaceOnUse"
     id="clipPath18-3"><path
       d="M 116.66667,116.66667 H 3391.6669 V 2362.5002 H 116.66667 Z"
       transform="matrix(0.16243653,0,0,0.16243653,-34.95093,-130.95088)"
       clip-rule="evenodd"
       id="path18-5" /></clipPath></defs><sodipodi:namedview
   id="namedview8"
   pagecolor="#ffffff"
   bordercolor="#000000"
   borderopacity="0.25"
   inkscape:showpageshadow="2"
   inkscape:pageopacity="0.0"
   inkscape:pagecheckerboard="0"
   inkscape:deskcolor="#d1d1d1"
   inkscape:zoom="12.000612"
   inkscape:cx="41.164567"
   inkscape:cy="25.457035"
   inkscape:window-width="1854"
   inkscape:window-height="1011"
   inkscape:window-x="66"
   inkscape:window-y="32"
   inkscape:window-maximized="1"
   inkscape:current-layer="Layer_1" />
<g
   id="g8"
   transform="translate(78.453322,81.446577)">
	
	
</g>
<text
   xml:space="preserve"
   style="font-size:12px;line-height:0.99;font-family:Trickster;-inkscape-font-specification:Trickster;text-align:center;letter-spacing:4.3px;word-spacing:0px;text-anchor:middle;fill:#0a20ff;stroke-width:9.99685;paint-order:markers fill stroke"
   x="246.87987"
   y="130.77573"
   id="text1"><tspan
     sodipodi:role="line"
     id="tspan1"
     x="246.87987"
     y="130.77573" /></text></svg>
