<?xml version="1.0" encoding="UTF-8" standalone="no"?>
<!-- Generator: Adobe Illustrator 16.0.0, SVG Export Plug-In . SVG Version: 6.00 Build 0)  -->

<svg
   version="1.0"
   id="Layer_1"
   x="0px"
   y="0px"
   width="61.841518"
   height="13.15301"
   viewBox="244.5 122.667 61.841518 13.153009"
   enable-background="new 244.5 122.667 140 33"
   xml:space="preserve"
   sodipodi:docname="logo_final_blue.svg"
   inkscape:version="1.3.2 (1:1.3.2+202311252150+091e20ef0f)"
   xmlns:inkscape="http://www.inkscape.org/namespaces/inkscape"
   xmlns:sodipodi="http://sodipodi.sourceforge.net/DTD/sodipodi-0.dtd"
   xmlns="http://www.w3.org/2000/svg"
   xmlns:svg="http://www.w3.org/2000/svg"><path
   d="m 244.5,135.22215 1.19573,-1.19573 4.18505,-9.56582 v -0.59787 l 2.39146,-1.19573 4.18504,11.35942 1.19573,1.19573 h -5.38077 l 1.19572,-1.19573 -0.59786,-1.79359 h -4.78291 l -0.59787,1.79359 1.19573,1.19573 z m 5.97864,-8.96796 -1.79359,4.78291 h 3.58719 l -1.7936,-5.38078 z m 19.6174,0.59786 -2.39146,-2.98932 h -1.19572 l -0.59787,0.59787 v 1.19572 l 4.78291,3.58719 0.59787,2.98932 -1.19573,2.39145 -1.79359,0.59787 h -1.19573 l -2.39146,-0.59787 -1.19572,0.59787 -0.59787,-4.78291 h 0.59787 l 2.39145,3.58718 h 2.39146 l 0.59786,-0.59786 v -1.19573 l -5.38077,-4.18505 -0.59787,-1.79359 0.59787,-2.39146 1.79359,-1.19573 3.58718,0.59787 1.19573,-0.59787 0.59786,4.18505 z m 14.23663,-3.58718 1.79359,0.59786 1.79359,2.39146 -1.19573,2.98932 -2.39145,0.59786 v 0.59787 l 1.79359,0.59786 2.39146,4.18505 -0.59787,0.59786 -2.98932,-1.19573 -1.79359,-3.58718 -0.59786,-0.59786 -1.19573,-0.59787 v 4.18505 l 1.19573,1.19573 h -5.38078 l 1.19573,-1.19573 v -9.56582 l -1.19573,-1.19573 z m 0.59786,3.58718 -0.59786,-1.79359 -1.19573,-0.59786 h -1.19573 l -0.59786,0.59786 v 4.18505 h 1.79359 l 1.19573,-0.59787 z m 13.63876,6.57651 1.19573,0.59786 h 1.19573 l 1.19572,-0.59786 v -2.39146 l -1.19572,-1.19573 h 5.38077 l -1.19573,1.19573 v 1.19573 l -1.19572,1.79359 -2.39146,1.19573 h -2.98932 l -2.39146,-1.19573 -1.79359,-1.79359 -0.59786,-2.98932 0.59786,-2.98932 1.79359,-1.79359 2.39146,-1.19573 h 2.98932 l 2.39146,1.19573 1.19572,1.79359 -1.19572,1.79359 h -1.7936 v -2.98932 l -1.19572,-0.59786 h -1.19573 l -1.19573,0.59786 -1.19573,1.79359 v 4.78291 z"
   id="text1"
   style="font-weight:800;font-size:14.9466px;font-family:Avara;-inkscape-font-specification:'Avara Ultra-Bold';text-align:center;letter-spacing:4.67081px;word-spacing:0px;text-anchor:middle;fill:#0a20ff;stroke-width:1.24524;paint-order:markers fill stroke"
   aria-label="ASRG" /><defs
   id="defs8"><clipPath
     clipPathUnits="userSpaceOnUse"
     id="clipPath18"><path
       d="M 116.66667,116.66667 H 3391.6669 V 2362.5002 H 116.66667 Z"
       transform="matrix(0.16243653,0,0,0.16243653,-34.95093,-130.95088)"
       clip-rule="evenodd"
       id="path18" /></clipPath><clipPath
     clipPathUnits="userSpaceOnUse"
     id="clipPath18-3"><path
       d="M 116.66667,116.66667 H 3391.6669 V 2362.5002 H 116.66667 Z"
       transform="matrix(0.16243653,0,0,0.16243653,-34.95093,-130.95088)"
       clip-rule="evenodd"
       id="path18-5" /></clipPath></defs><sodipodi:namedview
   id="namedview8"
   pagecolor="#ffffff"
   bordercolor="#000000"
   borderopacity="0.25"
   inkscape:showpageshadow="2"
   inkscape:pageopacity="0.0"
   inkscape:pagecheckerboard="0"
   inkscape:deskcolor="#d1d1d1"
   inkscape:zoom="12.000612"
   inkscape:cx="25.790351"
   inkscape:cy="10.91611"
   inkscape:window-width="1850"
   inkscape:window-height="1016"
   inkscape:window-x="70"
   inkscape:window-y="27"
   inkscape:window-maximized="1"
   inkscape:current-layer="Layer_1" />
<g
   id="g8"
   transform="translate(63.102581,40.286325)">
	
	
</g>
</svg>
