<?xml version="1.0" encoding="UTF-8" standalone="no"?>
<!-- Generator: Adobe Illustrator 16.0.0, SVG Export Plug-In . SVG Version: 6.00 Build 0)  -->

<svg
   version="1.0"
   id="Layer_1"
   x="0px"
   y="0px"
   width="67.776001"
   height="15.36"
   viewBox="244.5 122.667 67.776001 15.359997"
   enable-background="new 244.5 122.667 140 33"
   xml:space="preserve"
   sodipodi:docname="logo_final_blue.svg"
   inkscape:version="1.3.2 (1:1.3.2+202311252150+091e20ef0f)"
   xmlns:inkscape="http://www.inkscape.org/namespaces/inkscape"
   xmlns:sodipodi="http://sodipodi.sourceforge.net/DTD/sodipodi-0.dtd"
   xmlns="http://www.w3.org/2000/svg"
   xmlns:svg="http://www.w3.org/2000/svg"><defs
   id="defs8"><clipPath
     clipPathUnits="userSpaceOnUse"
     id="clipPath18"><path
       d="M 116.66667,116.66667 H 3391.6669 V 2362.5002 H 116.66667 Z"
       transform="matrix(0.16243653,0,0,0.16243653,-34.95093,-130.95088)"
       clip-rule="evenodd"
       id="path18" /></clipPath><clipPath
     clipPathUnits="userSpaceOnUse"
     id="clipPath18-3"><path
       d="M 116.66667,116.66667 H 3391.6669 V 2362.5002 H 116.66667 Z"
       transform="matrix(0.16243653,0,0,0.16243653,-34.95093,-130.95088)"
       clip-rule="evenodd"
       id="path18-5" /></clipPath></defs><sodipodi:namedview
   id="namedview8"
   pagecolor="#ffffff"
   bordercolor="#000000"
   borderopacity="0.25"
   inkscape:showpageshadow="2"
   inkscape:pageopacity="0.0"
   inkscape:pagecheckerboard="0"
   inkscape:deskcolor="#d1d1d1"
   inkscape:zoom="12.000612"
   inkscape:cx="35.49819"
   inkscape:cy="3.0415115"
   inkscape:window-width="1854"
   inkscape:window-height="1011"
   inkscape:window-x="66"
   inkscape:window-y="32"
   inkscape:window-maximized="1"
   inkscape:current-layer="Layer_1" />
<g
   id="g8"
   transform="translate(72.771592,59.058507)">
	
	
</g>
<text
   xml:space="preserve"
   style="font-size:12px;line-height:0.99;font-family:Trickster;-inkscape-font-specification:Trickster;text-align:center;letter-spacing:4.3px;word-spacing:0px;text-anchor:middle;fill:#0a20ff;stroke-width:9.99685;paint-order:markers fill stroke"
   x="241.19814"
   y="108.38766"
   id="text1"><tspan
     sodipodi:role="line"
     id="tspan1"
     x="241.19814"
     y="108.38766" /></text><path
   d="m 249.108,131.115 v -0.768 h 0.768 v -1.536 h 0.768 v -1.536 h 0.768 v -1.536 h 0.768 v 1.536 h 0.768 v 1.536 h 0.768 v 1.536 h 0.768 v 0.768 z m -2.304,6.912 v -1.536 h 0.768 v -1.536 h 0.768 v -1.536 h 6.912 v 1.536 h 0.768 v 1.536 h 0.768 v 1.536 h 2.304 v -2.304 h -0.768 v -1.536 h -0.768 v -2.304 h -0.768 v -1.536 h -0.768 v -1.536 h -0.768 v -1.536 h -0.768 v -1.536 h -0.768 v -1.536 h -0.768 v -1.536 h -2.304 v 1.536 h -0.768 v 1.536 h -0.768 v 1.536 h -0.768 v 1.536 h -0.768 v 1.536 h -0.768 v 1.536 h -0.768 v 2.304 h -0.768 v 1.536 H 244.5 v 2.304 z m 8.448,-6.144 v -0.768 h 0.768 v 1.536 h 0.768 v 1.536 h -0.768 v -1.536 h -8.448 v -1.536 h 0.768 v 0.768 z m -8.448,2.304 v -1.536 h 0.768 v 1.536 z m 4.608,-9.216 v -1.536 h 0.768 v 1.536 z m 6.144,12.288 v -0.768 h 0.768 v 0.768 z m -0.768,-1.536 v -0.768 h 0.768 v 0.768 z m -11.52,1.536 v -0.768 h 0.768 v 0.768 z m 0.768,-1.536 v -0.768 h 0.768 v 0.768 z m 26.36799,2.304 v -0.768 h 1.536 v -0.768 h 0.768 v -0.768 h 0.768 v -3.84 h -0.768 v -1.536 h -1.536 v -0.768 h -1.536 v -0.768 h -2.304 v -0.768 h -1.536 v -2.304 h 0.768 v -0.768 h 3.84 v 0.768 h 2.304 v -1.536 h -0.768 v -0.768 h -0.768 v -0.768 h -5.376 v 0.768 h -0.768 v 0.768 h -0.768 v 0.768 h -0.768 v 3.84 h 0.768 v 0.768 h 0.768 v 0.768 h 2.304 v 0.768 h 2.304 v 0.768 h 0.768 v 0.768 h 0.768 v 2.304 h -0.768 v 0.768 h -3.84 v -0.768 h -0.768 v -0.768 h -2.304 v 1.536 h 0.768 v 0.768 h 0.768 v 0.768 h 1.536 v 0.768 z m 0,-13.824 h -3.84 v -0.768 h 3.84 z m -5.376,1.536 v 2.304 h -0.768 v -2.304 z m 6.912,9.216 v -2.304 h 0.768 v 2.304 z m -4.608,2.304 v -0.768 h 2.304 v 0.768 z m 1.536,-6.912 h -0.768 v -0.768 h 0.768 z m -2.304,-0.768 h -0.768 v -0.768 h 0.768 z m 5.376,2.304 h -0.768 v -0.768 h 0.768 z m 10.33599,-3.072 v -3.84 h 5.376 v 0.768 h 0.768 v 2.304 h -0.768 v 0.768 z m 0,9.216 v -6.912 h 0.768 v 0.768 h 0.768 v 0.768 h 0.768 v 0.768 h 0.768 v 0.768 h 0.768 v 0.768 h 0.768 v 0.768 h 0.768 v 0.768 h 0.768 v 0.768 h 0.768 v 0.768 h 3.072 v -0.768 h -0.768 v -0.768 h -0.768 v -0.768 h -0.768 v -0.768 h -0.768 v -0.768 h -0.768 v -0.768 h -0.768 v -0.768 h -0.768 v -0.768 h -0.768 v -0.768 h 2.304 v -0.768 h 0.768 v -0.768 h 0.768 v -0.768 h 0.768 v -3.84 h -0.768 v -0.768 h -0.768 v -0.768 h -0.768 v -0.768 h -8.448 v 15.36 z m 5.376,-8.448 v 0.768 h -2.304 v 1.536 h -0.768 v -0.768 h -0.768 v -0.768 h -2.304 v 6.912 h -0.768 v -13.824 h 6.912 v 0.768 h -6.144 v 5.376 z m 1.536,-1.536 v -2.304 h 0.768 v 2.304 z m 16.48002,9.984 v -0.768 h 2.304 v -0.768 h 0.768 v -1.536 h 0.768 v -0.768 h 0.768 v -4.608 h -6.912 v 2.304 h 4.608 v 1.536 h -0.768 v 0.768 h -0.768 v 0.768 H 306.9 v 0.768 h -2.304 v -0.768 h -1.536 v -0.768 h -0.768 v -0.768 h -0.768 v -1.536 h -0.768 v -3.072 h 0.768 v -1.536 h 0.768 v -0.768 h 0.768 v -0.768 h 1.536 v -0.768 h 2.304 v 0.768 h 1.536 v 0.768 h 0.768 v 0.768 h 3.072 v -0.768 h -0.768 v -0.768 h -0.768 v -1.536 h -0.768 v -0.768 h -2.304 v -0.768 h -3.84 v 0.768 h -2.304 v 0.768 h -0.768 v 0.768 h -0.768 v 0.768 h -0.768 v 1.536 h -0.768 v 6.144 h 0.768 v 1.536 h 0.768 v 0.768 h 0.768 v 0.768 h 0.768 v 0.768 h 2.304 v 0.768 z m -3.84,-1.536 h -1.536 v -0.768 h -0.768 v -0.768 h -0.768 v -0.768 h -0.768 v -1.536 h -0.768 v -4.608 h 0.768 v 4.608 h 0.768 v 1.536 h 0.768 v 0.768 h 0.768 v 0.768 h 1.536 z m 6.912,-3.072 v -2.304 h -4.608 v -0.768 h 5.376 v 3.072 z m -6.144,3.84 v -0.768 h 2.304 v 0.768 z m 3.072,-13.056 h 1.536 v 0.768 h 0.768 v 0.768 h -0.768 v -0.768 h -1.536 z m -0.768,0 h -2.304 v -0.768 h 2.304 z m 0.768,12.288 v -0.768 h 1.536 v 0.768 z m -5.376,-11.52 v -0.768 h 1.536 v 0.768 z m -2.304,3.072 v -1.536 h 0.768 v 1.536 z m 1.536,-2.304 v -0.768 h 0.768 v 0.768 z m 7.68,9.984 v -0.768 h 0.768 v 0.768 z m -8.448,-9.216 v -0.768 h 0.768 v 0.768 z"
   id="text2"
   style="font-size:24px;line-height:0.99;font-family:'Terminal Grotesque Open';-inkscape-font-specification:'Terminal Grotesque Open';letter-spacing:4px;word-spacing:0px;fill:#0a1eff;stroke-width:0.311;paint-order:markers fill stroke"
   aria-label="ASRG" /></svg>
